<svg aria-hidden="true" style="position: absolute; width: 0; height: 0; overflow: hidden;" version="1.1" xmlns="http://www.w3.org/2000/svg" xmlns:xlink="http://www.w3.org/1999/xlink">
<defs>
<symbol id=".iconadd-to-cart" viewBox="0 0 32 32">
<title>add-to-cart</title>
<path d="M31.12 6.072c-0.593-0.678-1.439-1.051-2.381-1.051h-7.112v-4.083c0-0.518-0.42-0.938-0.938-0.938h-5.021c-0.518 0-0.938 0.42-0.938 0.938v4.083h-8.77l-0.229-1.719c-0.247-1.852-1.536-3.302-2.935-3.302h-1.674c-0.518 0-0.938 0.42-0.938 0.938s0.42 0.938 0.938 0.938h1.674c0.301 0 0.938 0.636 1.076 1.675l2.684 20.127c0.118 0.887 0.574 1.718 1.283 2.339 0.526 0.461 1.148 0.767 1.799 0.895-0.265 0.488-0.416 1.047-0.416 1.641 0 1.901 1.547 3.448 3.448 3.448s3.448-1.547 3.448-3.448c0-0.566-0.138-1.101-0.381-1.573h4.913c-0.243 0.472-0.381 1.006-0.381 1.573 0 1.901 1.547 3.448 3.448 3.448s3.448-1.547 3.448-3.448c0-0.566-0.138-1.101-0.381-1.573h2.456c0.518 0 0.938-0.42 0.938-0.938s-0.42-0.938-0.938-0.938h-18.912c-0.916 0-1.792-0.767-1.913-1.675l-0.196-1.471h18.511c0.895 0 1.779-0.342 2.488-0.963s1.165-1.452 1.284-2.339l1.344-10.085c0.125-0.934-0.134-1.822-0.727-2.499zM14.246 28.552c0 0.867-0.706 1.573-1.573 1.573s-1.573-0.706-1.573-1.573c0-0.867 0.706-1.573 1.573-1.573s1.573 0.706 1.573 1.573zM25.292 28.552c0 0.867-0.706 1.573-1.573 1.573s-1.573-0.706-1.573-1.573c0-0.867 0.706-1.573 1.573-1.573s1.573 0.706 1.573 1.573zM16.607 1.875h3.146v4.072c0 0.004-0 0.007-0 0.011s0 0.007 0 0.011v5.010c0 0.518 0.42 0.938 0.938 0.938h0.331l-2.785 2.763-2.785-2.763h0.219c0.518 0 0.938-0.42 0.938-0.938zM29.989 8.323l-1.344 10.086c-0.121 0.908-0.997 1.675-1.913 1.675h-18.761l-1.758-13.188h8.52v3.146h-1.557c-0.38 0-0.722 0.229-0.867 0.58s-0.063 0.755 0.207 1.023l5.061 5.021c0.183 0.181 0.421 0.272 0.66 0.272s0.478-0.091 0.66-0.272l5.061-5.021c0.27-0.268 0.351-0.671 0.207-1.023s-0.487-0.58-0.867-0.58h-1.669v-3.146h7.112c0.394 0 0.738 0.146 0.97 0.411s0.331 0.626 0.279 1.016z"></path>
</symbol>
<symbol id=".iconcard" viewBox="0 0 32 32">
<title>card</title>
<path d="M0 13v12c0 1.104 0.898 2 2 2h28c1.104 0 2-0.896 2-2v-12h-32zM11 21h-6c-0.552 0-1-0.448-1-1s0.448-1 1-1h6c0.552 0 1 0.448 1 1s-0.448 1-1 1zM25 23c-0.772 0-1.468-0.3-2-0.778-0.532 0.478-1.228 0.778-2 0.778-1.656 0-3-1.344-3-3s1.344-3 3-3c0.772 0 1.468 0.3 2 0.778 0.532-0.478 1.228-0.778 2-0.778 1.656 0 3 1.344 3 3s-1.344 3-3 3z"></path>
<path d="M30 5h-28c-1.102 0-2 0.898-2 2v2h32v-2c0-1.102-0.896-2-2-2z"></path>
</symbol>
<symbol id=".iconclock" viewBox="0 0 32 32">
<title>clock</title>
<path d="M16 0c-8.822 0-16 7.178-16 16s7.178 16 16 16 16-7.178 16-16-7.178-16-16-16zM16 30c-7.72 0-14-6.28-14-14s6.28-14 14-14 14 6.28 14 14-6.28 14-14 14z"></path>
<path d="M17 6h-2v10.414l6.293 6.293 1.414-1.414-5.707-5.707z"></path>
</symbol>
<symbol id=".iconglobal" viewBox="0 0 32 32">
<title>global</title>
<path d="M8.061 23.878c-0.54-0.55-1.029-1.16-1.455-1.827-0.141-0.221-0.435-0.286-0.657-0.145s-0.286 0.435-0.145 0.656c2.236 3.5 6.048 5.589 10.196 5.589 6.667 0 12.091-5.424 12.091-12.091s-5.424-12.091-12.091-12.091-12.091 5.424-12.091 12.091c0 1.589 0.304 3.134 0.903 4.592 0.1 0.243 0.378 0.359 0.62 0.259s0.359-0.377 0.259-0.62c-0.492-1.197-0.767-2.458-0.821-3.756h3.643c0.052 2.209 0.468 4.315 1.199 6.131-0.58 0.354-1.132 0.759-1.651 1.211zM8.758 24.53c0.425-0.364 0.874-0.694 1.343-0.987 0.165 0.338 0.341 0.664 0.529 0.976 0.488 0.808 1.035 1.49 1.626 2.038-1.279-0.455-2.464-1.141-3.498-2.028zM19.988 15.585h-3.513v-4.379c1.749-0.068 3.441-0.509 4.976-1.285 0.659 1.678 1.035 3.621 1.085 5.665h-0.648c-0.263 0-0.475 0.213-0.475 0.475s0.213 0.475 0.475 0.475h0.648c-0.051 2.043-0.426 3.987-1.085 5.665-1.535-0.776-3.227-1.218-4.976-1.286v-4.379h3.513c0.262 0 0.475-0.213 0.475-0.475s-0.213-0.475-0.475-0.475zM16.475 4.949c1.526 0.189 2.96 1.289 4.081 3.143 0.184 0.304 0.355 0.624 0.515 0.955-1.416 0.725-2.979 1.139-4.596 1.207zM15.525 4.949v5.306c-1.617-0.068-3.18-0.483-4.596-1.207 0.16-0.332 0.331-0.651 0.515-0.955 1.121-1.854 2.555-2.954 4.081-3.143zM15.525 11.206v4.379h-6.062c0.051-2.043 0.426-3.987 1.085-5.665 1.535 0.776 3.227 1.217 4.976 1.285zM16.475 27.171v-5.306c1.617 0.068 3.18 0.483 4.596 1.208-0.16 0.332-0.331 0.651-0.515 0.955-1.12 1.855-2.555 2.954-4.081 3.144zM15.525 27.171c-1.526-0.189-2.96-1.289-4.081-3.144-0.184-0.304-0.355-0.623-0.515-0.955 1.416-0.725 2.979-1.139 4.596-1.208v5.306zM21.37 24.52c0.188-0.312 0.364-0.638 0.529-0.976 0.466 0.292 0.913 0.619 1.336 0.981-1.019 0.872-2.196 1.564-3.483 2.025 0.588-0.546 1.131-1.226 1.617-2.030zM23.934 23.873c-0.518-0.451-1.068-0.854-1.645-1.207 0.732-1.816 1.147-3.922 1.199-6.131h3.643c-0.12 2.853-1.318 5.431-3.196 7.338zM27.13 15.585h-3.643c-0.052-2.209-0.467-4.315-1.199-6.131 0.578-0.352 1.128-0.755 1.645-1.206 1.878 1.907 3.076 4.485 3.196 7.337zM23.236 7.596c-0.423 0.362-0.87 0.689-1.336 0.981-0.165-0.338-0.341-0.665-0.53-0.977-0.486-0.804-1.030-1.484-1.617-2.030 1.287 0.462 2.464 1.153 3.483 2.026zM10.63 7.6c-0.188 0.312-0.365 0.638-0.53 0.977-0.466-0.292-0.913-0.619-1.337-0.981 1.019-0.872 2.197-1.564 3.483-2.026-0.588 0.546-1.131 1.226-1.617 2.030zM8.066 8.248c0.518 0.451 1.068 0.854 1.646 1.206-0.732 1.816-1.147 3.922-1.199 6.131h-3.643c0.12-2.852 1.318-5.43 3.196-7.337zM9.463 16.535h6.062v4.379c-1.749 0.068-3.441 0.509-4.976 1.286-0.659-1.678-1.035-3.621-1.085-5.665z"></path>
<path d="M28.043 5.526h2.577c0.262 0 0.475-0.213 0.475-0.475s-0.213-0.475-0.475-0.475h-3.675c-0.263 0-0.475 0.213-0.475 0.475v3.675c0 0.263 0.213 0.475 0.475 0.475s0.475-0.213 0.475-0.475v-2.465c2.37 2.754 3.653 6.236 3.628 9.902-0.027 3.981-1.592 7.724-4.407 10.539-2.843 2.843-6.622 4.408-10.642 4.408s-7.799-1.565-10.642-4.408c-2.843-2.843-4.408-6.622-4.408-10.642s1.565-7.799 4.408-10.642c2.316-2.316 5.249-3.787 8.481-4.253 3.126-0.451 6.379 0.105 9.159 1.567 0.232 0.122 0.52 0.033 0.642-0.2s0.033-0.52-0.199-0.642c-2.957-1.554-6.415-2.145-9.738-1.666-3.437 0.496-6.555 2.059-9.017 4.521-3.022 3.022-4.686 7.040-4.686 11.314s1.664 8.292 4.686 11.314 7.040 4.686 11.314 4.686 8.292-1.664 11.314-4.686c2.993-2.993 4.657-6.972 4.686-11.205 0.027-3.949-1.373-7.697-3.956-10.643z"></path>
</symbol>
<symbol id=".iconheart" viewBox="0 0 32 32">
<title>heart</title>
<path d="M23.667 1.333c-3.549 0-6.481 3.297-7.667 4.853-1.186-1.556-4.117-4.853-7.667-4.853-4.595 0-8.333 4.225-8.333 9.417 0 2.833 1.124 5.473 3.092 7.279 0.029 0.049 0.064 0.095 0.105 0.136l12.332 12.307c0.13 0.13 0.3 0.195 0.471 0.195s0.341-0.065 0.471-0.195l12.874-12.865c0.104-0.098 0.207-0.198 0.322-0.326 0.048-0.047 0.088-0.101 0.119-0.159 1.429-1.75 2.214-4.007 2.214-6.372 0-5.192-3.738-9.417-8.333-9.417zM28.676 16.372c-0.018 0.021-0.035 0.044-0.050 0.068-0.063 0.072-0.131 0.135-0.199 0.199l-12.428 12.419-11.708-11.684c-0.038-0.074-0.090-0.142-0.155-0.199-1.782-1.556-2.803-3.898-2.803-6.425 0-4.457 3.14-8.083 7-8.083 3.816 0 7.074 4.978 7.106 5.028 0.246 0.38 0.875 0.38 1.121 0 0.033-0.050 3.29-5.028 7.106-5.028 3.86 0 7 3.626 7 8.083 0 2.1-0.707 4.097-1.99 5.622z"></path>
</symbol>
<symbol id=".iconmail" viewBox="0 0 32 32">
<title>mail</title>
<path d="M31.994 12.233c-0.003-0.037-0.011-0.073-0.022-0.108-0.007-0.031-0.017-0.062-0.030-0.092-0.015-0.029-0.033-0.056-0.053-0.082-0.021-0.030-0.044-0.058-0.071-0.083-0.009-0.007-0.012-0.018-0.021-0.025l-5.129-3.984v-4.129c0-0.884-0.716-1.6-1.6-1.6h-5.78l-2.314-1.797c-0.572-0.446-1.373-0.446-1.945 0l-2.315 1.797h-5.78c-0.884 0-1.6 0.716-1.6 1.6v4.129l-5.128 3.984c-0.009 0.008-0.013 0.018-0.021 0.025-0.027 0.025-0.050 0.053-0.071 0.083-0.021 0.025-0.038 0.053-0.053 0.082-0.013 0.030-0.023 0.060-0.030 0.092-0.011 0.035-0.018 0.070-0.022 0.107 0 0.011-0.006 0.021-0.006 0.032v18.136c0.001 0.339 0.111 0.669 0.313 0.941 0.003 0.005 0.004 0.011 0.007 0.015s0.012 0.009 0.017 0.015c0.3 0.394 0.766 0.627 1.261 0.629h28.801c0.497-0.002 0.965-0.235 1.265-0.631 0.004-0.005 0.011-0.007 0.014-0.012s0.004-0.010 0.008-0.015c0.203-0.272 0.312-0.602 0.313-0.941v-18.134c-0-0.011-0.006-0.021-0.006-0.032zM15.679 1.176c0.186-0.148 0.45-0.148 0.636 0l1.23 0.955h-3.093l1.227-0.955zM1.733 30.933l13.946-10.833c0.186-0.148 0.45-0.148 0.636 0l13.95 10.833h-28.533zM30.933 30.102l-13.961-10.843c-0.572-0.446-1.373-0.446-1.945 0l-13.962 10.843v-17.024l8.74 6.787c0.233 0.181 0.568 0.138 0.749-0.095s0.138-0.568-0.095-0.749l-8.879-6.895 3.752-2.916v4.121c0 0.295 0.239 0.533 0.533 0.533s0.533-0.239 0.533-0.533v-9.601c0-0.295 0.239-0.533 0.533-0.533h18.134c0.295 0 0.533 0.239 0.533 0.533v9.601c0 0.295 0.239 0.533 0.533 0.533s0.533-0.239 0.533-0.533v-4.121l3.752 2.916-8.895 6.907c-0.153 0.116-0.232 0.305-0.207 0.496s0.151 0.352 0.329 0.424c0.178 0.072 0.381 0.042 0.531-0.077l8.756-6.799v17.024z"></path>
<path d="M22.399 12.799v-2.133c0-3.535-2.866-6.4-6.4-6.4s-6.4 2.866-6.4 6.4 2.866 6.4 6.4 6.4c0.295 0 0.533-0.239 0.533-0.533s-0.239-0.533-0.533-0.533c-2.946 0-5.334-2.388-5.334-5.334s2.388-5.334 5.334-5.334 5.334 2.388 5.334 5.334v2.133c0 0.589-0.478 1.067-1.067 1.067s-1.067-0.478-1.067-1.067v-2.133c0-0.295-0.239-0.533-0.533-0.533s-0.533 0.239-0.533 0.533c0 1.178-0.955 2.133-2.133 2.133s-2.133-0.955-2.133-2.133 0.955-2.133 2.133-2.133c0.295 0 0.533-0.239 0.533-0.533s-0.239-0.533-0.533-0.533c-1.432-0.003-2.692 0.946-3.085 2.323s0.178 2.848 1.397 3.6c1.219 0.752 2.789 0.603 3.844-0.365 0.116 1.128 1.096 1.967 2.229 1.907s2.019-0.997 2.015-2.131z"></path>
</symbol>
<symbol id=".iconnorth" viewBox="0 0 32 32">
<title>north</title>
<path d="M11.159 10.82c0.137 0.138 0.345 0.177 0.523 0.098l4.319-1.919 4.319 1.919c0.061 0.027 0.126 0.040 0.19 0.040 0.122 0 0.242-0.048 0.332-0.138 0.137-0.138 0.175-0.346 0.095-0.523l-4.509-10.020c-0.076-0.168-0.243-0.276-0.427-0.276s-0.352 0.108-0.427 0.276l-4.509 10.020c-0.080 0.177-0.042 0.385 0.095 0.523zM16.469 8.18v-5.528l3.109 6.91-3.109-1.382zM15.531 2.653v5.528l-3.109 1.382 3.109-6.909z"></path>
<path d="M17.034 11.491v2.602l-2.162-2.883c-0.121-0.161-0.332-0.227-0.523-0.163s-0.32 0.243-0.32 0.445v4.008c0 0.259 0.21 0.469 0.469 0.469s0.469-0.21 0.469-0.469v-2.602l2.162 2.883c0.090 0.12 0.23 0.188 0.375 0.188 0.049 0 0.099-0.008 0.148-0.024 0.191-0.064 0.32-0.243 0.32-0.445v-4.008c0-0.259-0.21-0.469-0.469-0.469s-0.469 0.21-0.469 0.469z"></path>
<path d="M19.536 3.426c4.944 1.388 8.626 5.564 9.38 10.639 0.035 0.233 0.235 0.4 0.463 0.4 0.023 0 0.046-0.002 0.069-0.005 0.256-0.038 0.433-0.276 0.395-0.533-0.808-5.44-4.754-9.916-10.054-11.404-0.249-0.070-0.508 0.075-0.578 0.325s0.075 0.508 0.325 0.578z"></path>
<path d="M3.475 16.469c0.259 0 0.469-0.21 0.469-0.469s-0.21-0.469-0.469-0.469h-0.524c0.204-5.707 4.12-10.663 9.664-12.147 0.25-0.067 0.399-0.324 0.332-0.574s-0.324-0.399-0.574-0.332c-5.953 1.594-10.155 6.921-10.359 13.052h-1.544c-0.259 0-0.469 0.21-0.469 0.469s0.21 0.469 0.469 0.469h3.006z"></path>
<path d="M31.531 15.531h-3.006c-0.259 0-0.469 0.21-0.469 0.469s0.21 0.469 0.469 0.469h0.524c-0.242 6.828-5.752 12.338-12.58 12.58v-0.524c0-0.259-0.21-0.469-0.469-0.469s-0.469 0.21-0.469 0.469v0.524c-2.982-0.107-5.841-1.23-8.097-3.192-2.351-2.044-3.896-4.858-4.351-7.922-0.038-0.256-0.277-0.433-0.532-0.395s-0.433 0.276-0.395 0.532c0.488 3.285 2.144 6.301 4.663 8.492 2.426 2.11 5.504 3.315 8.712 3.423v1.544c0 0.259 0.21 0.469 0.469 0.469s0.469-0.21 0.469-0.469v-1.544c3.563-0.116 6.895-1.558 9.428-4.091s3.974-5.865 4.091-9.428h1.544c0.259 0 0.469-0.21 0.469-0.469s-0.21-0.469-0.469-0.469z"></path>
</symbol>
<symbol id=".iconphone" viewBox="0 0 32 32">
<title>phone</title>
<path d="M31.16 24.686l-1.243-0.828c2.803-4.931 2.772-10.98-0.082-15.881s-8.1-7.914-13.772-7.909c-0.295 0-0.533 0.239-0.533 0.533s0.239 0.533 0.533 0.533c5.278-0.004 10.162 2.793 12.829 7.347s2.719 10.182 0.134 14.783l-4.345-2.897c-0.822-0.543-1.924-0.365-2.531 0.411l-1.885 2.426c-0.243 0.32-0.683 0.412-1.034 0.218l-0.359-0.198c-1.19-0.648-2.67-1.456-5.652-4.439s-3.791-4.465-4.44-5.652l-0.197-0.359c-0.198-0.351-0.107-0.793 0.213-1.038l2.424-1.886c0.776-0.608 0.955-1.709 0.412-2.531l-4.319-6.477c-0.557-0.837-1.673-1.089-2.535-0.571l-2.708 1.627c-0.851 0.5-1.475 1.311-1.742 2.261-0.975 3.554-0.242 9.687 8.793 18.722 3.935 3.935 7.319 6.292 10.18 7.626-4.403 0.995-9.020-0.070-12.543-2.893s-5.568-7.097-5.556-11.611c0-0.295-0.239-0.533-0.533-0.533s-0.533 0.239-0.533 0.533c0.008 8.794 7.134 15.922 15.928 15.934 1.648 0.001 3.285-0.257 4.853-0.765 1.414 0.528 2.909 0.809 4.419 0.829 0.846 0.004 1.689-0.106 2.506-0.327 0.951-0.266 1.761-0.891 2.261-1.742l1.629-2.707c0.519-0.862 0.268-1.979-0.57-2.536zM30.814 26.674l-1.625 2.708c-0.359 0.615-0.943 1.068-1.629 1.262-1.551 0.427-3.652 0.48-6.352-0.493-0.043-0.024-0.089-0.042-0.137-0.053-2.986-1.109-6.694-3.471-11.198-7.974-8.671-8.67-9.418-14.402-8.517-17.683 0.195-0.685 0.647-1.269 1.262-1.629l2.708-1.625c0.374-0.225 0.859-0.116 1.1 0.247l4.316 6.476c0.236 0.357 0.158 0.835-0.178 1.099l-2.425 1.886c-0.738 0.564-0.949 1.585-0.494 2.395l0.193 0.35c0.682 1.25 1.529 2.805 4.622 5.898s4.648 3.94 5.897 4.622l0.35 0.193c0.81 0.454 1.831 0.244 2.395-0.494l1.886-2.425c0.264-0.336 0.742-0.414 1.099-0.178l6.476 4.319c0.363 0.241 0.473 0.724 0.249 1.098z"></path>
</symbol>
<symbol id=".iconsend" viewBox="0 0 32 32">
<title>send</title>
<path d="M0.015 2.286l-0.015 10.667 22.857 3.048-22.857 3.048 0.015 10.667 31.985-13.714z"></path>
</symbol>
<symbol id=".iconshare" viewBox="0 0 32 32">
<title>share</title>
<path d="M31.989 15.991l-14.584-15.991v9.579h-1.694c-4.197 0-8.142 1.634-11.11 4.602s-4.602 6.913-4.602 11.11v6.709l2.799-3.067c3.744-4.102 9.058-6.475 14.607-6.529v9.578zM1.875 27.179v-1.888c0-3.696 1.439-7.171 4.053-9.784s6.088-4.053 9.784-4.053h3.569v-6.615l10.171 11.152-10.171 11.153v-6.615h-1.682c-5.919 0-11.611 2.416-15.723 6.65z"></path>
</symbol>
<symbol id=".iconwheel" viewBox="0 0 32 32">
<title>wheel</title>
<path d="M16 8.351c-4.218 0-7.649 3.432-7.649 7.649s3.432 7.649 7.649 7.649 7.649-3.432 7.649-7.649-3.432-7.649-7.649-7.649zM16 21.737c-3.163 0-5.737-2.574-5.737-5.737s2.574-5.737 5.737-5.737 5.737 2.574 5.737 5.737-2.574 5.737-5.737 5.737z"></path>
<path d="M31.247 12.356l-2.459-0.535c-0.214-0.655-0.479-1.293-0.791-1.909l1.362-2.118c0.243-0.378 0.19-0.875-0.128-1.193l-3.832-3.832c-0.318-0.318-0.815-0.371-1.193-0.128l-2.118 1.362c-0.615-0.313-1.254-0.578-1.909-0.792l-0.535-2.459c-0.095-0.439-0.485-0.753-0.934-0.753h-5.418c-0.45 0-0.839 0.313-0.934 0.753l-0.535 2.459c-0.655 0.214-1.293 0.479-1.909 0.792l-2.118-1.362c-0.378-0.243-0.875-0.19-1.193 0.128l-3.832 3.832c-0.318 0.318-0.371 0.815-0.128 1.193l1.362 2.118c-0.313 0.615-0.578 1.254-0.792 1.909l-2.459 0.535c-0.439 0.096-0.753 0.485-0.753 0.934v5.418c0 0.45 0.313 0.839 0.753 0.934l2.459 0.535c0.214 0.655 0.479 1.293 0.792 1.909l-1.362 2.118c-0.243 0.378-0.19 0.875 0.128 1.193l3.832 3.832c0.318 0.318 0.815 0.371 1.193 0.128l2.118-1.362c0.615 0.313 1.254 0.578 1.909 0.791l0.535 2.459c0.095 0.439 0.485 0.753 0.934 0.753h5.418c0.45 0 0.839-0.313 0.934-0.753l0.535-2.459c0.655-0.214 1.293-0.479 1.909-0.791l2.118 1.362c0.378 0.243 0.875 0.19 1.193-0.128l3.832-3.832c0.318-0.318 0.371-0.815 0.128-1.193l-1.362-2.118c0.313-0.615 0.578-1.254 0.791-1.909l2.459-0.535c0.439-0.096 0.753-0.485 0.753-0.934v-5.418c0-0.45-0.313-0.839-0.753-0.934zM30.088 17.938l-2.255 0.49c-0.346 0.075-0.623 0.336-0.718 0.677-0.248 0.889-0.604 1.749-1.059 2.555-0.174 0.309-0.164 0.689 0.028 0.987l1.249 1.942-2.741 2.742-1.943-1.249c-0.298-0.192-0.678-0.203-0.987-0.028-0.807 0.455-1.666 0.812-2.555 1.059-0.341 0.095-0.602 0.372-0.677 0.718l-0.49 2.255h-3.877l-0.49-2.255c-0.075-0.346-0.336-0.623-0.678-0.718-0.889-0.248-1.749-0.604-2.555-1.059-0.309-0.174-0.689-0.163-0.987 0.028l-1.942 1.249-2.741-2.742 1.249-1.942c0.192-0.298 0.203-0.678 0.029-0.987-0.455-0.806-0.812-1.666-1.060-2.555-0.095-0.341-0.371-0.602-0.718-0.677l-2.255-0.49v-3.877l2.255-0.49c0.346-0.075 0.623-0.336 0.718-0.678 0.248-0.889 0.604-1.749 1.059-2.555 0.174-0.309 0.164-0.689-0.028-0.987l-1.249-1.942 2.741-2.742 1.943 1.249c0.298 0.192 0.678 0.203 0.987 0.028 0.807-0.455 1.666-0.812 2.555-1.059 0.341-0.095 0.602-0.372 0.678-0.718l0.49-2.255h3.877l0.49 2.255c0.075 0.346 0.336 0.623 0.677 0.718 0.889 0.248 1.749 0.604 2.555 1.059 0.309 0.174 0.689 0.163 0.987-0.028l1.942-1.249 2.741 2.742-1.249 1.942c-0.192 0.298-0.203 0.678-0.029 0.987 0.455 0.806 0.812 1.666 1.060 2.555 0.095 0.341 0.371 0.602 0.718 0.678l2.255 0.49z"></path>
</symbol>
</defs>
</svg>
