<svg aria-hidden="true" style="position:absolute;width:0;height:0" xmlns="http://www.w3.org/2000/svg" overflow="hidden"><defs><symbol id=".iconadd-to-cart" viewBox="0 0 32 32"><path d="M31.12 6.072c-.593-.678-1.439-1.051-2.381-1.051h-7.112V.938A.938.938 0 0020.689 0h-5.021a.938.938 0 00-.938.938v4.083H5.96l-.229-1.719C5.484 1.45 4.195 0 2.796 0H1.122a.938.938 0 000 1.876h1.674c.301 0 .938.636 1.076 1.675l2.684 20.127c.118.887.574 1.718 1.283 2.339a3.87 3.87 0 001.799.895 3.429 3.429 0 00-.416 1.641c0 1.901 1.547 3.448 3.448 3.448s3.448-1.547 3.448-3.448c0-.566-.138-1.101-.381-1.573h4.913a3.425 3.425 0 00-.381 1.573c0 1.901 1.547 3.448 3.448 3.448s3.448-1.547 3.448-3.448c0-.566-.138-1.101-.381-1.573h2.456a.938.938 0 000-1.876H10.328c-.916 0-1.792-.767-1.913-1.675l-.196-1.471H26.73c.895 0 1.779-.342 2.488-.963s1.165-1.452 1.284-2.339l1.344-10.085c.125-.934-.134-1.822-.727-2.499zm-16.874 22.48c0 .867-.706 1.573-1.573 1.573s-1.573-.706-1.573-1.573.706-1.573 1.573-1.573 1.573.706 1.573 1.573zm11.046 0c0 .867-.706 1.573-1.573 1.573s-1.573-.706-1.573-1.573.706-1.573 1.573-1.573 1.573.706 1.573 1.573zM16.607 1.875h3.146v9.104c0 .518.42.938.938.938h.331l-2.785 2.763-2.785-2.763h.219c.518 0 .938-.42.938-.938zm13.382 6.448l-1.344 10.086c-.121.908-.997 1.675-1.913 1.675H7.971L6.213 6.896h8.52v3.146h-1.557a.938.938 0 00-.66 1.603l5.061 5.021a.935.935 0 001.32 0l5.061-5.021a.939.939 0 00-.66-1.603h-1.669V6.896h7.112c.394 0 .738.146.97.411s.331.626.279 1.016z"/></symbol><symbol id=".iconcard" viewBox="0 0 32 32"><path d="M0 13v12c0 1.104.898 2 2 2h28a2 2 0 002-2V13H0zm11 8H5a1 1 0 010-2h6a1 1 0 010 2zm14 2c-.772 0-1.468-.3-2-.778A2.982 2.982 0 0121 23a3.001 3.001 0 010-6c.772 0 1.468.3 2 .778A2.982 2.982 0 0125 17a3.001 3.001 0 010 6zm5-18H2C.898 5 0 5.898 0 7v2h32V7c0-1.102-.896-2-2-2z"/></symbol><symbol id=".iconclock" viewBox="0 0 32 32"><path d="M16 0C7.178 0 0 7.178 0 16s7.178 16 16 16 16-7.178 16-16S24.822 0 16 0zm0 30C8.28 30 2 23.72 2 16S8.28 2 16 2s14 6.28 14 14-6.28 14-14 14z"/><path d="M17 6h-2v10.414l6.293 6.293 1.414-1.414L17 15.586z"/></symbol><symbol id=".iconglobal" viewBox="0 0 32 32"><path d="M8.061 23.878a11.25 11.25 0 01-1.455-1.827.476.476 0 00-.802.511A12.047 12.047 0 0016 28.151c6.667 0 12.091-5.424 12.091-12.091S22.667 3.969 16 3.969 3.909 9.393 3.909 16.06c0 1.589.304 3.134.903 4.592a.475.475 0 10.879-.361 11.047 11.047 0 01-.821-3.756h3.643c.052 2.209.468 4.315 1.199 6.131-.58.354-1.132.759-1.651 1.211zm.697.652c.425-.364.874-.694 1.343-.987.165.338.341.664.529.976a9.368 9.368 0 001.626 2.038 11.067 11.067 0 01-3.498-2.028zm11.23-8.945h-3.513v-4.379a12.051 12.051 0 004.976-1.285c.659 1.678 1.035 3.621 1.085 5.665h-.648a.475.475 0 100 .95h.648c-.051 2.043-.426 3.987-1.085 5.665a12.052 12.052 0 00-4.976-1.286v-4.379h3.513a.475.475 0 000-.95zM16.475 4.949c1.526.189 2.96 1.289 4.081 3.143.184.304.355.624.515.955a11.092 11.092 0 01-4.596 1.207zm-.95 0v5.306a11.108 11.108 0 01-4.596-1.207c.16-.332.331-.651.515-.955 1.121-1.854 2.555-2.954 4.081-3.143zm0 6.257v4.379H9.463c.051-2.043.426-3.987 1.085-5.665a12.051 12.051 0 004.976 1.285zm.95 15.965v-5.306c1.617.068 3.18.483 4.596 1.208-.16.332-.331.651-.515.955-1.12 1.855-2.555 2.954-4.081 3.144zm-.95 0c-1.526-.189-2.96-1.289-4.081-3.144a11.408 11.408 0 01-.515-.955 11.109 11.109 0 014.596-1.208v5.306zm5.845-2.651c.188-.312.364-.638.529-.976a11.2 11.2 0 011.336.981 11.133 11.133 0 01-3.483 2.025c.588-.546 1.131-1.226 1.617-2.03zm2.564-.647a12.202 12.202 0 00-1.645-1.207c.732-1.816 1.147-3.922 1.199-6.131h3.643a11.104 11.104 0 01-3.196 7.338zm3.196-8.288h-3.643c-.052-2.209-.467-4.315-1.199-6.131a11.986 11.986 0 001.645-1.206 11.103 11.103 0 013.196 7.337zm-3.894-7.989a11.2 11.2 0 01-1.336.981 12.3 12.3 0 00-.53-.977 9.395 9.395 0 00-1.617-2.03 11.136 11.136 0 013.483 2.026zM10.63 7.6a12.45 12.45 0 00-.53.977 11.292 11.292 0 01-1.337-.981 11.167 11.167 0 013.483-2.026c-.588.546-1.131 1.226-1.617 2.03zm-2.564.648c.518.451 1.068.854 1.646 1.206-.732 1.816-1.147 3.922-1.199 6.131H4.87a11.103 11.103 0 013.196-7.337zm1.397 8.287h6.062v4.379a12.037 12.037 0 00-4.976 1.286c-.659-1.678-1.035-3.621-1.085-5.665z"/><path d="M28.043 5.526h2.577a.475.475 0 000-.95h-3.675a.475.475 0 00-.475.475v3.675a.475.475 0 10.95 0V6.261a14.947 14.947 0 013.628 9.902 14.96 14.96 0 01-4.407 10.539c-2.843 2.843-6.622 4.408-10.642 4.408S8.2 29.545 5.357 26.702C2.514 23.859.949 20.08.949 16.06S2.514 8.261 5.357 5.418a14.922 14.922 0 018.481-4.253 15.17 15.17 0 019.159 1.567.475.475 0 00.443-.842A16.138 16.138 0 0013.702.224a15.866 15.866 0 00-9.017 4.521C1.663 7.767-.001 11.785-.001 16.059s1.664 8.292 4.686 11.314 7.04 4.686 11.314 4.686 8.292-1.664 11.314-4.686a15.906 15.906 0 004.686-11.205 15.895 15.895 0 00-3.956-10.643z"/></symbol><symbol id=".iconheart" viewBox="0 0 32 32"><path d="M23.667 1.333c-3.549 0-6.481 3.297-7.667 4.853-1.186-1.556-4.117-4.853-7.667-4.853C3.738 1.333 0 5.558 0 10.75c0 2.833 1.124 5.473 3.092 7.279a.687.687 0 00.105.136l12.332 12.307a.663.663 0 00.942 0l12.874-12.865a5.27 5.27 0 00.322-.326.655.655 0 00.119-.159C31.215 15.372 32 13.115 32 10.75c0-5.192-3.738-9.417-8.333-9.417zm5.009 15.039a.567.567 0 00-.05.068c-.063.072-.131.135-.199.199L15.999 29.058 4.291 17.374a.674.674 0 00-.155-.199c-1.782-1.556-2.803-3.898-2.803-6.425 0-4.457 3.14-8.083 7-8.083 3.816 0 7.074 4.978 7.106 5.028.246.38.875.38 1.121 0 .033-.05 3.29-5.028 7.106-5.028 3.86 0 7 3.626 7 8.083 0 2.1-.707 4.097-1.99 5.622z"/></symbol><symbol id=".iconmail" viewBox="0 0 32 32"><path d="M31.994 12.233a.493.493 0 00-.022-.108.52.52 0 00-.03-.092.546.546 0 00-.053-.082.51.51 0 00-.071-.083c-.009-.007-.012-.018-.021-.025l-5.129-3.984V3.73a1.6 1.6 0 00-1.6-1.6h-5.78L16.974.333a1.58 1.58 0 00-1.945 0L12.714 2.13h-5.78a1.6 1.6 0 00-1.6 1.6v4.129L.206 11.843c-.009.008-.013.018-.021.025a.51.51 0 00-.071.083.442.442 0 00-.053.082.495.495 0 00-.03.092.55.55 0 00-.022.107c0 .011-.006.021-.006.032V30.4c.001.339.111.669.313.941.003.005.004.011.007.015s.012.009.017.015c.3.394.766.627 1.261.629h28.801a1.595 1.595 0 001.265-.631c.004-.005.011-.007.014-.012s.004-.01.008-.015a1.58 1.58 0 00.313-.941V12.267c0-.011-.006-.021-.006-.032zM15.679 1.176a.511.511 0 01.636 0l1.23.955h-3.093l1.227-.955zM1.733 30.933L15.679 20.1a.511.511 0 01.636 0l13.95 10.833H1.732zm29.2-.831L16.972 19.259a1.58 1.58 0 00-1.945 0L1.065 30.102V13.078l8.74 6.787a.534.534 0 10.654-.844L1.58 12.126 5.332 9.21v4.121a.533.533 0 101.066 0V3.73c0-.295.239-.533.533-.533h18.134c.295 0 .533.239.533.533v9.601a.533.533 0 101.066 0V9.21l3.752 2.916-8.895 6.907a.535.535 0 00.122.92.533.533 0 00.531-.077l8.756-6.799v17.024z"/><path d="M22.399 12.799v-2.133a6.4 6.4 0 10-6.4 6.4.533.533 0 100-1.066 5.334 5.334 0 115.334-5.334v2.133a1.067 1.067 0 01-2.134 0v-2.133a.533.533 0 10-1.066 0A2.133 2.133 0 1116 8.533a.533.533 0 100-1.066 3.2 3.2 0 102.156 5.558 2.127 2.127 0 004.244-.224z"/></symbol><symbol id=".iconnorth" viewBox="0 0 32 32"><path d="M11.159 10.82a.469.469 0 00.523.098l4.319-1.919 4.319 1.919a.47.47 0 00.617-.621L16.428.277a.469.469 0 00-.854 0l-4.509 10.02a.469.469 0 00.095.523zm5.31-2.64V2.652l3.109 6.91-3.109-1.382zm-.938-5.527v5.528l-3.109 1.382 3.109-6.909z"/><path d="M17.034 11.491v2.602l-2.162-2.883a.469.469 0 00-.843.282V15.5a.469.469 0 00.938 0v-2.602l2.162 2.883a.47.47 0 00.843-.281v-4.008a.469.469 0 00-.938 0zm2.502-8.065a13.061 13.061 0 019.38 10.639.47.47 0 00.927-.138A14 14 0 0019.789 2.523a.468.468 0 10-.253.903zM3.475 16.469a.469.469 0 000-.938h-.524c.204-5.707 4.12-10.663 9.664-12.147a.47.47 0 00-.242-.906C6.42 4.072 2.218 9.399 2.014 15.53H.47a.469.469 0 000 .938h3.006zm28.056-.938h-3.006a.469.469 0 000 .938h.524c-.242 6.828-5.752 12.338-12.58 12.58v-.524a.469.469 0 00-.938 0v.524a13.05 13.05 0 01-8.097-3.192 13.052 13.052 0 01-4.351-7.922.469.469 0 00-.927.137 13.995 13.995 0 0013.375 11.915v1.544a.469.469 0 00.938 0v-1.544c3.563-.116 6.895-1.558 9.428-4.091s3.974-5.865 4.091-9.428h1.544a.469.469 0 000-.938z"/></symbol><symbol id=".iconphone" viewBox="0 0 32 32"><path d="M31.16 24.686l-1.243-.828A15.922 15.922 0 0016.063.068a.533.533 0 100 1.066 14.854 14.854 0 0112.963 22.13l-4.345-2.897a1.89 1.89 0 00-2.531.411l-1.885 2.426a.807.807 0 01-1.034.218l-.359-.198c-1.19-.648-2.67-1.456-5.652-4.439s-3.791-4.465-4.44-5.652l-.197-.359a.807.807 0 01.213-1.038L11.22 9.85a1.89 1.89 0 00.412-2.531L7.313.842A1.88 1.88 0 004.778.271L2.07 1.898A3.822 3.822 0 00.328 4.159c-.975 3.554-.242 9.687 8.793 18.722 3.935 3.935 7.319 6.292 10.18 7.626A14.831 14.831 0 011.202 16.003a.533.533 0 10-1.066 0c.008 8.794 7.134 15.922 15.928 15.934a15.712 15.712 0 004.853-.765 13.13 13.13 0 004.419.829 9.427 9.427 0 002.506-.327 3.815 3.815 0 002.261-1.742l1.629-2.707a1.88 1.88 0 00-.57-2.536zm-.346 1.988l-1.625 2.708a2.755 2.755 0 01-1.629 1.262c-1.551.427-3.652.48-6.352-.493a.519.519 0 00-.137-.053c-2.986-1.109-6.694-3.471-11.198-7.974C1.202 13.454.455 7.722 1.356 4.441a2.765 2.765 0 011.262-1.629l2.708-1.625a.816.816 0 011.1.247l4.316 6.476a.822.822 0 01-.178 1.099l-2.425 1.886a1.865 1.865 0 00-.494 2.395l.193.35c.682 1.25 1.529 2.805 4.622 5.898s4.648 3.94 5.897 4.622l.35.193c.81.454 1.831.244 2.395-.494l1.886-2.425a.822.822 0 011.099-.178l6.476 4.319a.815.815 0 01.249 1.098z"/></symbol><symbol id=".iconsend" viewBox="0 0 32 32"><path d="M.015 2.286L0 12.953l22.857 3.048L0 19.049l.015 10.667L32 16.002z"/></symbol><symbol id=".iconshare" viewBox="0 0 32 32"><path d="M31.989 15.991L17.405 0v9.579h-1.694c-4.197 0-8.142 1.634-11.11 4.602s-4.602 6.913-4.602 11.11V32l2.799-3.067a20.084 20.084 0 0114.607-6.529v9.578zM1.875 27.179v-1.888c0-3.696 1.439-7.171 4.053-9.784s6.088-4.053 9.784-4.053h3.569V4.839l10.171 11.152-10.171 11.153v-6.615h-1.682a21.966 21.966 0 00-15.723 6.65z"/></symbol><symbol id=".iconwheel" viewBox="0 0 32 32"><path d="M16 8.351c-4.218 0-7.649 3.432-7.649 7.649s3.432 7.649 7.649 7.649 7.649-3.432 7.649-7.649S20.217 8.351 16 8.351zm0 13.386c-3.163 0-5.737-2.574-5.737-5.737s2.574-5.737 5.737-5.737 5.737 2.574 5.737 5.737-2.574 5.737-5.737 5.737z"/><path d="M31.247 12.356l-2.459-.535a13.515 13.515 0 00-.791-1.909l1.362-2.118a.956.956 0 00-.128-1.193l-3.832-3.832a.956.956 0 00-1.193-.128l-2.118 1.362a13.356 13.356 0 00-1.909-.792L19.644.752a.957.957 0 00-.934-.753h-5.418a.955.955 0 00-.934.753l-.535 2.459c-.655.214-1.293.479-1.909.792L7.796 2.641a.956.956 0 00-1.193.128L2.771 6.601a.956.956 0 00-.128 1.193l1.362 2.118a13.356 13.356 0 00-.792 1.909l-2.459.535a.957.957 0 00-.753.934v5.418c0 .45.313.839.753.934l2.459.535c.214.655.479 1.293.792 1.909l-1.362 2.118a.956.956 0 00.128 1.193l3.832 3.832a.956.956 0 001.193.128l2.118-1.362c.615.313 1.254.578 1.909.791l.535 2.459a.957.957 0 00.934.753h5.418c.45 0 .839-.313.934-.753l.535-2.459a13.515 13.515 0 001.909-.791l2.118 1.362a.956.956 0 001.193-.128l3.832-3.832a.956.956 0 00.128-1.193l-1.362-2.118c.313-.615.578-1.254.791-1.909l2.459-.535a.957.957 0 00.753-.934V13.29a.955.955 0 00-.753-.934zm-1.159 5.582l-2.255.49a.956.956 0 00-.718.677 11.476 11.476 0 01-1.059 2.555.956.956 0 00.028.987l1.249 1.942-2.741 2.742-1.943-1.249a.954.954 0 00-.987-.028c-.807.455-1.666.812-2.555 1.059a.956.956 0 00-.677.718l-.49 2.255h-3.877l-.49-2.255a.956.956 0 00-.678-.718 11.476 11.476 0 01-2.555-1.059.958.958 0 00-.987.028l-1.942 1.249-2.741-2.742 1.249-1.942a.956.956 0 00.029-.987 11.479 11.479 0 01-1.06-2.555.955.955 0 00-.718-.677l-2.255-.49v-3.877l2.255-.49a.956.956 0 00.718-.678c.248-.889.604-1.749 1.059-2.555a.956.956 0 00-.028-.987L4.67 7.409l2.741-2.742 1.943 1.249a.954.954 0 00.987.028 11.448 11.448 0 012.555-1.059.959.959 0 00.678-.718l.49-2.255h3.877l.49 2.255a.956.956 0 00.677.718c.889.248 1.749.604 2.555 1.059a.958.958 0 00.987-.028l1.942-1.249 2.741 2.742-1.249 1.942a.956.956 0 00-.029.987c.455.806.812 1.666 1.06 2.555a.957.957 0 00.718.678l2.255.49z"/></symbol></defs></svg>